<?xml version="1.0" standalone="no"?>
<!DOCTYPE svg PUBLIC "-//W3C//DTD SVG 20010904//EN"
 "http://www.w3.org/TR/2001/REC-SVG-20010904/DTD/svg10.dtd">
<svg version="1.0" xmlns="http://www.w3.org/2000/svg"
 width="5000.000000pt" height="5000.000000pt" viewBox="0 0 5000.000000 5000.000000"
 preserveAspectRatio="xMidYMid meet">
<metadata>
Created by potrace 1.16, written by Peter Selinger 2001-2019
</metadata>
<g transform="translate(0.000000,5000.000000) scale(1.225490,-1.231527)"
fill="#000000" stroke="none">
<path d="M1805 4034 c-421 -59 -775 -211 -1058 -455 -48 -41 -49 -41 -87 -29
-93 31 -163 -43 -140 -145 7 -33 4 -40 -32 -83 -22 -26 -48 -56 -57 -67 -47
-56 -150 -223 -201 -326 -145 -288 -210 -570 -210 -905 0 -234 20 -372 82
-582 l31 -102 -21 -23 c-31 -32 -40 -108 -18 -142 23 -35 74 -65 112 -65 26 0
33 -6 53 -47 65 -137 231 -353 379 -494 286 -275 602 -441 999 -526 121 -26
142 -27 388 -27 246 0 267 1 388 27 397 85 713 251 999 526 152 145 312 356
384 504 24 48 32 57 55 57 14 0 41 10 60 23 27 18 36 33 45 73 8 35 22 61 47
86 46 47 49 79 44 468 -4 287 -14 434 -37 559 -9 49 -8 55 13 71 12 10 28 34
35 54 12 33 11 41 -8 80 -19 41 -31 50 -92 70 -21 6 -24 44 -4 52 7 3 21 22
30 42 15 32 15 43 4 77 -15 45 -66 85 -109 85 -26 0 -33 8 -73 88 -154 307
-437 609 -748 799 -186 113 -408 199 -639 249 -109 23 -152 26 -354 29 -126 2
-243 1 -260 -1z m390 -34 c605 -57 1104 -357 1436 -862 88 -135 168 -309 169
-370 0 -4 -138 -9 -307 -10 -266 -3 -308 -5 -308 -18 0 -13 43 -15 316 -18
l317 -2 20 -48 c24 -57 35 -116 27 -142 -6 -19 -18 -20 -341 -20 -327 0 -334
0 -334 -20 0 -20 7 -20 340 -20 l339 0 18 -32 c21 -41 32 -253 14 -287 -12
-21 -15 -21 -366 -21 l-355 0 0 -25 0 -25 324 0 c317 0 324 0 351 -22 27 -21
28 -22 22 -108 -6 -77 -34 -176 -58 -203 -12 -15 -49 3 -49 24 0 31 -26 86
-54 114 l-25 25 -216 0 c-144 0 -229 -4 -256 -12 -38 -12 -40 -15 -34 -43 3
-16 14 -39 25 -50 18 -18 38 -21 190 -25 118 -4 173 -9 182 -18 10 -10 8 -14
-11 -19 -17 -4 -19 -8 -9 -14 7 -5 -282 -9 -644 -9 -519 0 -658 3 -660 13 -5
44 -18 42 269 47 264 5 272 6 292 27 12 12 21 35 21 51 0 46 -38 52 -346 54
-217 2 -274 6 -288 17 -21 18 -46 75 -46 107 0 12 -7 29 -15 38 -13 12 -15 63
-15 330 l0 316 350 0 c343 0 350 0 350 20 0 20 -7 20 -350 20 l-350 0 0 385 0
385 -203 0 -203 0 -24 -42 c-13 -24 -42 -74 -65 -113 -23 -38 -140 -240 -260
-449 -189 -327 -220 -376 -231 -361 -7 9 -122 211 -255 448 l-243 431 55 49
c411 372 956 557 1494 507z m-105 -1289 c0 -449 -4 -782 -9 -785 -5 -3 -14
-44 -21 -91 -10 -68 -16 -85 -31 -90 -10 -4 -19 -11 -19 -16 0 -5 -72 -9 -170
-9 -107 0 -170 4 -170 10 0 6 -7 10 -15 10 -8 0 -21 15 -29 34 -23 56 -50 76
-100 76 -39 0 -55 -8 -118 -55 -40 -30 -81 -55 -90 -55 -9 0 -20 -4 -23 -10
-8 -13 -272 -13 -280 0 -3 6 -17 10 -30 10 -13 0 -47 20 -77 43 -65 54 -90 67
-121 67 -33 0 -76 -36 -93 -77 -8 -18 -21 -33 -29 -33 -8 0 -15 -4 -15 -10 0
-6 -86 -10 -239 -10 l-239 0 -35 73 c-45 92 -59 185 -59 387 0 119 5 179 22
260 41 203 137 448 240 615 79 129 270 368 283 355 2 -3 58 -102 124 -220 66
-118 182 -326 258 -462 76 -137 144 -248 151 -248 7 0 25 26 41 58 16 31 145
258 288 505 l258 447 173 0 174 0 0 -779z"/>
<path d="M2346 2293 l2 -218 31 1 c17 0 126 1 241 2 203 2 210 3 210 22 0 19
-7 20 -201 20 -119 0 -208 4 -220 10 -18 10 -19 23 -19 175 l0 165 220 0 c213
0 220 1 220 20 0 19 -7 20 -242 20 l-243 0 1 -217z"/>
</g>
</svg>
